<svg xmlns="http://www.w3.org/2000/svg" xmlns:xlink="http://www.w3.org/1999/xlink" width="148" height="211" version="1.1" viewBox="0 0 148 211"><defs><clipPath id="screen"><rect width="56" height="98" x="0" y="0" fill="#FFF" rx="6"/></clipPath><g id="fade"><text x="32" y="6" fill="#000" alignment-baseline="central" font-family="HelveticaNeue-Light, Helvetica Neue" font-size="14" text-anchor="middle">Fade</text><g transform="translate(0, 21)"><rect width="64" height="126" x="0" y="0" fill="#0C1E31" rx="11"/><circle cx="32" cy="118" r="4" fill="#FFF"/><g clip-path="url(#screen)" transform="translate(4, 14)"><rect width="56" height="98" x="0" y="0" fill="#FFF" rx="6"/><g><rect width="56" height="98" x="0" y="0" fill="#37D0AB"/><text fill="#000" font-family="HelveticaNeue-Light, Helvetica Neue" font-size="50"><tspan x="15" y="66">1</tspan></text></g><g><rect width="56" height="98" x="0" y="0" fill="#3A97FC"/><text fill="#000" font-family="HelveticaNeue-Light, Helvetica Neue" font-size="50"><tspan x="14" y="65">2</tspan></text><animate fill="freeze" attributeName="opacity" calcMode="spline" dur="2s" keySplines="0.4,0,0.2,1;0.4,0,0.2,1;0.4,0,0.2,1;0.4,0,0.2,1" keyTimes="0;0.15;0.5;0.65;1" repeatCount="indefinite" values="0;1;1;0;0"/></g></g></g></g><g id="zoom"><text x="32" y="6" fill="#000" alignment-baseline="central" font-family="HelveticaNeue-Light, Helvetica Neue" font-size="14" text-anchor="middle">Zoom</text><g transform="translate(0, 21)"><rect width="64" height="126" x="0" y="0" fill="#0C1E31" rx="11"/><circle cx="32" cy="118" r="4" fill="#FFF"/><g clip-path="url(#screen)" transform="translate(4, 14)"><rect width="56" height="98" x="0" y="0" fill="#FFF" rx="6"/><g><g transform="translate(28, 49)"><rect width="56" height="98" x="-28" y="-49" fill="#3A97FC" rx="6"/><text fill="#000" font-family="HelveticaNeue-Light, Helvetica Neue" font-size="50"><tspan x="-14" y="16">2</tspan></text><animateTransform fill="freeze" additive="sum" attributeName="transform" calcMode="spline" dur="2s" keySplines="0.4,0,0.2,1;0.4,0,0.2,1;0.4,0,0.2,1;0.4,0,0.2,1" keyTimes="0;0.15;0.5;0.65;1" repeatCount="indefinite" type="scale" values="0.7 0.7;1 1;1 1;0.7 0.7;0.7 0.7"/></g></g><g><g transform="translate(28, 49)"><rect width="56" height="98" x="-28" y="-49" fill="#37D0AB" rx="6"/><text fill="#000" font-family="HelveticaNeue-Light, Helvetica Neue" font-size="50"><tspan x="-13" y="17">1</tspan></text><animateTransform fill="freeze" additive="sum" attributeName="transform" calcMode="spline" dur="2s" keySplines="0.4,0,0.2,1;0.4,0,0.2,1;0.4,0,0.2,1;0.4,0,0.2,1" keyTimes="0;0.15;0.5;0.65;1" repeatCount="indefinite" type="scale" values="1 1;1.5 1.5;1.5 1.5;1 1;1 1"/><animate fill="freeze" attributeName="opacity" calcMode="spline" dur="2s" keySplines="0.4,0,0.2,1;0.4,0,0.2,1;0.4,0,0.2,1;0.4,0,0.2,1" keyTimes="0;0.15;0.5;0.65;1" repeatCount="indefinite" values="1;0;0;1;1"/></g></g></g></g></g></defs><g transform="translate(0, 40)"><use x="0" xlink:href="#fade"/><use x="84" xlink:href="#zoom"/></g></svg>