<svg xmlns="http://www.w3.org/2000/svg" xmlns:xlink="http://www.w3.org/1999/xlink" width="316" height="180" version="1.1" viewBox="0 0 316 180"><defs><clipPath id="screen"><rect width="56" height="98" x="0" y="0" fill="#FFF" rx="6"/></clipPath></defs><g fill="none" fill-rule="evenodd" stroke="none" stroke-width="1"><g id="Arc" transform="translate(0, 16)"><text x="32" y="6" fill="#000" alignment-baseline="central" font-family="HelveticaNeue-Light, Helvetica Neue" font-size="14" text-anchor="middle">Arc</text><g id="Group" transform="translate(0, 21)"><rect id="Rectangle" width="64" height="126" x="0" y="0" fill="#0C1E31" rx="11"/><circle id="Oval" cx="32" cy="118" r="4" fill="#FFF"/><g id="Group-2" transform="translate(4, 14)"><rect id="Rectangle-3" width="56" height="98" x="0" y="0" fill="#FFF" rx="6"/><path id="arcPath" stroke="#DDD" stroke-linecap="round" d="M16.5,25.5 C16.5,25.5 16,52 22.5,63 C31,74 41.5,72.5 41.5,72.5"/><rect id="Rectangle-2" width="17" height="17" x="-8.5" y="-8.5" fill="#3A97FC" rx="8.5"><animateMotion id="arcDown" fill="freeze" begin="0s;arcUp.end + 0.6s" calcMode="spline" dur=".4s" keySplines="0.4,0,0.2,1" keyTimes="0;1"><mpath xlink:href="#arcPath"/></animateMotion><animateMotion id="arcUp" fill="freeze" begin="arcDown.end + 0.6s" calcMode="spline" dur=".4s" keyPoints="1;0" keySplines="0.4,0,0.2,1" keyTimes="0;1"><mpath xlink:href="#arcPath"/></animateMotion></rect></g></g></g><g id="Cascade" transform="translate(84, 16)"><text x="32" y="6" fill="#000" alignment-baseline="central" font-family="HelveticaNeue-Light, Helvetica Neue" font-size="14" text-anchor="middle">Cascade</text><g id="Group" transform="translate(0, 21)"><rect id="Rectangle" width="64" height="126" x="0" y="0" fill="#0C1E31" rx="11"/><circle id="Oval" cx="32" cy="118" r="4" fill="#FFF"/><g id="Group-2" transform="translate(4, 14)"><rect id="Rectangle-3" width="56" height="98" x="0" y="0" fill="#FFF" rx="6"/><rect id="Rectangle-2" width="16" height="16" x="9" y="19" fill="#fff" rx="8"><animate fill="freeze" attributeName="fill" begin="0.25s" dur="2s" keyTimes="0;0.15;0.5;0.65;1" repeatCount="indefinite" values="white; #3A97FC; #3A97FC; white; white"/></rect><rect id="Rectangle-2-Copy" width="16" height="16" x="31" y="19" fill="#fff" rx="8"><animate fill="freeze" attributeName="fill" begin="0.30s" dur="2s" keyTimes="0;0.15;0.5;0.65;1" repeatCount="indefinite" values="white; #3A97FC; #3A97FC; white; white"/></rect><rect id="Rectangle-2" width="16" height="16" x="9" y="63" fill="#fff" rx="8"><animate fill="freeze" attributeName="fill" begin="0.45s" dur="2s" keyTimes="0;0.15;0.5;0.65;1" repeatCount="indefinite" values="white; #3A97FC; #3A97FC; white; white"/></rect><rect id="Rectangle-2-Copy" width="16" height="16" x="31" y="63" fill="#fff" rx="8"><animate fill="freeze" attributeName="fill" begin="0.5s" dur="2s" keyTimes="0;0.15;0.5;0.65;1" repeatCount="indefinite" values="white; #3A97FC; #3A97FC; white; white"/></rect><rect id="Rectangle-2" width="16" height="16" x="9" y="41" fill="#fff" rx="8"><animate fill="freeze" attributeName="fill" begin="0.35s" dur="2s" keyTimes="0;0.15;0.5;0.65;1" repeatCount="indefinite" values="white; #3A97FC; #3A97FC; white; white"/></rect><rect id="Rectangle-2-Copy" width="16" height="16" x="31" y="41" fill="#fff" rx="8"><animate fill="freeze" attributeName="fill" begin="0.4s" dur="2s" keyTimes="0;0.15;0.5;0.65;1" repeatCount="indefinite" values="white; #3A97FC; #3A97FC; white; white"/></rect></g></g></g><g id="Interactive" transform="translate(168, 16)"><text x="32" y="6" fill="#000" alignment-baseline="central" font-family="HelveticaNeue-Light, Helvetica Neue" font-size="14" text-anchor="middle">Interactive</text><g id="Group" transform="translate(0, 21)"><rect id="Rectangle" width="64" height="126" x="0" y="0" fill="#0C1E31" rx="11"/><circle id="Oval" cx="32" cy="118" r="4" fill="#FFF"/><g id="Group-2" clip-path="url(#screen)" transform="translate(4, 14)"><rect id="Rectangle-3" width="56" height="98" x="0" y="0" fill="#FFF" rx="6"/><path id="interactivePath" stroke="#fff" d="M28,73 C28,73 29.5,58.5 34.5,44.5 C39.5,30.5 42,32.5 43,27 C44,21.5 38,17 30.5,17 C23,17 17.5,18.5 17.5,23 C17.5,27.5 43,31.5 43,22 C43,12.5 19,11.5 19,28.5 C19,45.5 28,73 28,73 Z"/><g id="Box" transform="translate(-19, -19)"><rect id="Rectangle-2" width="38" height="38" x="0" y="0" fill="#3A97FC" rx="8"/><rect id="Rectangle-2" width="10" height="10" x="19" y="9" fill="#F0FFFC" fill-opacity=".52" stroke="#FFF" rx="5"><animate fill="freeze" attributeName="opacity" begin="0s;interactiveAnim.end+0.5s" dur="1s" values="0; 1.0; 1.0; 1.0; 0"/></rect><animateMotion id="interactiveAnim" fill="freeze" begin="0s;interactiveAnim.end+1s" dur="1s"><mpath xlink:href="#interactivePath"/></animateMotion></g></g></g></g><g id="Dynamic" transform="translate(252, 16)"><text x="32" y="6" fill="#000" alignment-baseline="central" font-family="HelveticaNeue-Light, Helvetica Neue" font-size="14" text-anchor="middle">Dynamic</text><g id="Group" transform="translate(0, 21)"><rect id="Rectangle" width="64" height="126" x="0" y="0" fill="#0C1E31" rx="11"/><circle id="Oval" cx="32" cy="118" r="4" fill="#FFF"/><g id="Group-2" transform="translate(4, 14)"><rect id="Rectangle-3" width="56" height="98" x="0" y="0" fill="#FFF" rx="6"/><rect id="Rectangle-2" width="10" height="10" x="28" y="44" fill="#F0FFFC" fill-opacity=".52" stroke="#FFF" rx="5"/><circle id="Rectangle-2" cx="9" cy="14" r="5" fill="#3A97FC"><animate fill="freeze" attributeName="cx" begin="0.75s" calcMode="spline" dur="2s" keySplines="0.4,0,0.2,1;0.4,0,0.2,1;0.4,0,0.2,1;0.4,0,0.2,1" keyTimes="0;0.15;0.5;0.65;1" repeatCount="indefinite" values="9;13;13;9;9"/><animate fill="freeze" attributeName="cy" begin="0.75s" calcMode="spline" dur="2s" keySplines="0.4,0,0.2,1;0.4,0,0.2,1;0.4,0,0.2,1;0.4,0,0.2,1" keyTimes="0;0.15;0.5;0.65;1" repeatCount="indefinite" values="14;84;84;14;14"/><animate fill="freeze" attributeName="r" begin="0.75s" calcMode="spline" dur="2s" keySplines="0.4,0,0.2,1;0.4,0,0.2,1;0.4,0,0.2,1;0.4,0,0.2,1" keyTimes="0;0.15;0.5;0.65;1" repeatCount="indefinite" values="5; 9; 9; 5; 5"/></circle><circle id="Rectangle-2" cx="25" cy="20" r="7" fill="#3A97FC"><animate fill="freeze" attributeName="cx" begin="0.8s" calcMode="spline" dur="2s" keySplines="0.4,0,0.2,1;0.4,0,0.2,1;0.4,0,0.2,1;0.4,0,0.2,1" keyTimes="0;0.15;0.5;0.65;1" repeatCount="indefinite" values="25;31;31;25;25"/><animate fill="freeze" attributeName="cy" begin="0.8s" calcMode="spline" dur="2s" keySplines="0.4,0,0.2,1;0.4,0,0.2,1;0.4,0,0.2,1;0.4,0,0.2,1" keyTimes="0;0.15;0.5;0.65;1" repeatCount="indefinite" values="20;79;79;20;20"/></circle><circle id="Rectangle-2" cx="43" cy="28" r="8" fill="#3A97FC"><animate fill="freeze" attributeName="cx" begin="0.85s" calcMode="spline" dur="2s" keySplines="0.4,0,0.2,1;0.4,0,0.2,1;0.4,0,0.2,1;0.4,0,0.2,1" keyTimes="0;0.15;0.5;0.65;1" repeatCount="indefinite" values="43;47;47;43;43"/><animate fill="freeze" attributeName="cy" begin="0.85s" calcMode="spline" dur="2s" keySplines="0.4,0,0.2,1;0.4,0,0.2,1;0.4,0,0.2,1;0.4,0,0.2,1" keyTimes="0;0.15;0.5;0.65;1" repeatCount="indefinite" values="28;76;76;28;28"/><animate fill="freeze" attributeName="r" begin="0.85s" calcMode="spline" dur="2s" keySplines="0.4,0,0.2,1;0.4,0,0.2,1;0.4,0,0.2,1;0.4,0,0.2,1" keyTimes="0;0.15;0.5;0.65;1" repeatCount="indefinite" values="8; 5; 5; 8; 8"/></circle></g></g></g></g></svg>