<svg xmlns="http://www.w3.org/2000/svg" xmlns:xlink="http://www.w3.org/1999/xlink" width="316" height="180" version="1.1" viewBox="0 0 316 180"><defs><clipPath id="screen"><rect width="56" height="98" x="0" y="0" fill="#FFF" rx="6"/></clipPath><rect id="square" width="16" height="16" x="-8" y="-8" fill="#FC3A5E" rx="5"/><g id="v1"><text x="32" y="6" fill="#000" alignment-baseline="central" font-family="HelveticaNeue-Light, Helvetica Neue" font-size="14" text-anchor="middle">VC 1</text><g transform="translate(0, 21)"><rect width="64" height="126" x="0" y="0" fill="#99A9BA" rx="11"/><g clip-path="url(#screen)" transform="translate(4, 14)"><rect width="56" height="98" x="0" y="0" fill="#FFF" rx="6"/><rect width="40" height="40" x="8" y="39" fill="#FC3A5E" rx="6"/><rect width="40" height="14" x="8" y="19" fill="#555" rx="6"/></g></g></g><g id="v2"><text x="32" y="6" fill="#000" alignment-baseline="central" font-family="HelveticaNeue-Light, Helvetica Neue" font-size="14" text-anchor="middle">VC 2</text><g transform="translate(0, 21)"><rect width="64" height="126" x="0" y="0" fill="#99A9BA" rx="11"/><g clip-path="url(#screen)" transform="translate(4, 14)"><rect width="56" height="98" x="0" y="0" fill="#FFF" rx="6"/><rect width="56" height="98" x="0" y="0" fill="#FC3A5E" rx="6"/><rect width="40" height="14" x="8" y="9" fill="#555" rx="6"/><rect width="44" height="90" x="6" y="29" fill="#FFF" rx="6"/></g></g></g><g id="animate"><text x="32" y="6" fill="#000" alignment-baseline="central" font-family="HelveticaNeue-Light, Helvetica Neue" font-size="14" text-anchor="middle">Result</text><g transform="translate(0, 21)"><rect width="64" height="126" x="0" y="0" fill="#0C1E31" rx="11"/><circle cx="32" cy="118" r="4" fill="#FFF"/><g clip-path="url(#screen)" transform="translate(4, 14)"><rect width="56" height="98" x="0" y="0" fill="#FFF" rx="6"/><rect width="40" height="40" x="8" y="39" fill="#FC3A5E" rx="6"><animate fill="freeze" attributeName="x" calcMode="spline" dur="2s" keySplines="0.4,0,0.2,1;0.4,0,0.2,1;0.4,0,0.2,1;0.4,0,0.2,1" keyTimes="0;0.15;0.5;0.65;1" repeatCount="indefinite" values="8;0;0;8;8"/><animate fill="freeze" attributeName="y" calcMode="spline" dur="2s" keySplines="0.4,0,0.2,1;0.4,0,0.2,1;0.4,0,0.2,1;0.4,0,0.2,1" keyTimes="0;0.15;0.5;0.65;1" repeatCount="indefinite" values="39;0;0;39;39"/><animate fill="freeze" attributeName="width" calcMode="spline" dur="2s" keySplines="0.4,0,0.2,1;0.4,0,0.2,1;0.4,0,0.2,1;0.4,0,0.2,1" keyTimes="0;0.15;0.5;0.65;1" repeatCount="indefinite" values="40;56;56;40;40"/><animate fill="freeze" attributeName="height" calcMode="spline" dur="2s" keySplines="0.4,0,0.2,1;0.4,0,0.2,1;0.4,0,0.2,1;0.4,0,0.2,1" keyTimes="0;0.15;0.5;0.65;1" repeatCount="indefinite" values="40;98;98;40;40"/></rect><rect width="40" height="14" x="8" y="19" fill="#555" rx="6"><animate fill="freeze" attributeName="y" calcMode="spline" dur="2s" keySplines="0.4,0,0.2,1;0.4,0,0.2,1;0.4,0,0.2,1;0.4,0,0.2,1" keyTimes="0;0.15;0.5;0.65;1" repeatCount="indefinite" values="19;9;9;19;19"/></rect><rect width="40" height="80" x="8" y="98" fill="#FFF" rx="6"><animate fill="freeze" attributeName="y" calcMode="spline" dur="2s" keySplines="0.4,0,0.2,1;0.4,0,0.2,1;0.4,0,0.2,1;0.4,0,0.2,1" keyTimes="0;0.15;0.5;0.65;1" repeatCount="indefinite" values="98;29;29;98;98"/></rect></g></g></g></defs><g transform="translate(0, 16)"><use x="0" xlink:href="#v1"/><use x="84" xlink:href="#v2"/><use x="252" xlink:href="#animate"/></g></svg>